# xmcd
#
# Track frame offsets: 
#        150
#        20915
#        37842
#        59452
#        76207
#        91232
#        111037
#        128342
#        146357
#        159355
#        178437
#        196027
#
# Disc length: 2795 seconds
#
# Revision: 3
# Processed by: cddbd v1.5.2PL0 Copyright (c) Steve Scherf et al.
# Submitted via: ExactAudioCopy v0.99pb5
#
DISCID=910ae90c
DTITLE=Studebaker John and The Hawks - Outside Lookin' In
DYEAR=1995
DGENRE=Blues
TTITLE0=Shake
TTITLE1=Dirty Business
TTITLE2=She's A Rocker
TTITLE3=Whoa Yeah
TTITLE4=Outside Lookin' In
TTITLE5=New Way Of Walkin'
TTITLE6=Nothin' But Fun
TTITLE7=Blue Feelin'
TTITLE8=Circumstances
TTITLE9=You Done Me Wrong
TTITLE10=Tell Me Why
TTITLE11=Flippin' Out
EXTD=
EXTT0=
EXTT1=
EXTT2=
EXTT3=
EXTT4=
EXTT5=
EXTT6=
EXTT7=
EXTT8=
EXTT9=
EXTT10=
EXTT11=
PLAYORDER=
